<?xml version="1.0" standalone="no"?>
<!DOCTYPE svg PUBLIC "-//W3C//DTD SVG 20010904//EN"
 "http://www.w3.org/TR/2001/REC-SVG-20010904/DTD/svg10.dtd">
<svg version="1.0" xmlns="http://www.w3.org/2000/svg"
 width="225.000000pt" height="225.000000pt" viewBox="0 0 225.000000 225.000000"
 preserveAspectRatio="xMidYMid meet">

<g transform="translate(0.000000,225.000000) scale(0.100000,-0.100000)"
fill="#000000" stroke="none">
<path d="M65 2111 c-11 -5 -29 -19 -40 -31 -20 -22 -20 -36 -20 -894 l0 -871
22 -41 c12 -22 40 -57 62 -77 78 -70 42 -68 1057 -65 1006 3 939 -1 1018 68
20 18 47 52 59 74 22 41 22 42 25 771 2 526 -1 737 -9 757 -19 45 -48 57 -151
60 l-93 3 -5 100 c-3 55 -9 106 -14 114 -26 41 -34 41 -983 40 -499 0 -917 -4
-928 -8z m1826 -873 c0 -579 3 -792 12 -818 28 -82 167 -112 167 -36 0 25 -28
56 -50 56 -10 0 -21 7 -24 16 -3 9 -6 306 -6 660 l0 644 80 0 80 0 -2 -712 -3
-713 -24 -34 c-13 -18 -42 -42 -65 -52 -39 -18 -85 -19 -931 -19 l-891 0 -44
22 c-24 13 -53 36 -64 51 -21 28 -21 38 -24 873 l-2 844 895 0 895 0 1 -782z"/>
<path d="M322 1798 c-19 -19 -15 -66 7 -78 13 -6 242 -10 674 -10 621 0 655 1
670 18 21 23 22 46 1 66 -14 14 -89 16 -678 16 -501 0 -665 -3 -674 -12z"/>
<path d="M326 1544 c-14 -13 -16 -54 -16 -294 0 -240 2 -281 16 -294 23 -24
538 -24 572 0 22 15 22 17 22 294 0 277 0 279 -22 294 -34 24 -549 24 -572 0z
m494 -294 l0 -210 -205 0 -205 0 0 210 0 210 205 0 205 0 0 -210z"/>
<path d="M1098 1549 c-21 -12 -24 -62 -4 -78 9 -8 96 -11 297 -9 l284 3 10 29
c8 24 6 31 -14 47 -21 18 -43 19 -290 19 -162 0 -273 -5 -283 -11z"/>
<path d="M1092 1288 c-19 -19 -15 -66 7 -78 12 -6 122 -10 289 -10 248 0 270
1 285 18 21 23 22 46 1 66 -13 14 -54 16 -293 16 -202 0 -280 -3 -289 -12z"/>
<path d="M1098 1039 c-21 -12 -24 -59 -6 -77 9 -9 87 -12 289 -12 239 0 280 2
293 16 22 22 20 50 -6 68 -19 14 -63 16 -288 16 -161 0 -272 -5 -282 -11z"/>
<path d="M322 778 c-17 -17 -15 -54 4 -72 23 -24 538 -24 572 0 24 17 29 53
10 72 -17 17 -569 17 -586 0z"/>
<path d="M1092 778 c-19 -19 -15 -66 7 -78 12 -6 121 -10 284 -10 245 0 267 1
288 19 20 16 22 23 14 47 l-10 29 -286 3 c-213 2 -288 -1 -297 -10z"/>
<path d="M328 529 c-21 -12 -24 -59 -6 -77 9 -9 87 -12 289 -12 239 0 280 2
293 16 21 21 20 47 -2 67 -16 15 -51 17 -288 17 -164 0 -276 -5 -286 -11z"/>
<path d="M1098 529 c-21 -12 -24 -59 -6 -77 9 -9 87 -12 289 -12 239 0 280 2
293 16 21 21 20 47 -2 67 -16 15 -51 17 -288 17 -164 0 -276 -5 -286 -11z"/>
</g>
</svg>
