<?xml version="1.0" standalone="no"?>
<!DOCTYPE svg PUBLIC "-//W3C//DTD SVG 20010904//EN"
 "http://www.w3.org/TR/2001/REC-SVG-20010904/DTD/svg10.dtd">
<svg version="1.0" xmlns="http://www.w3.org/2000/svg"
 width="840.000000pt" height="881.000000pt" viewBox="0 0 840.000000 881.000000"
 preserveAspectRatio="xMidYMid meet">

<g transform="translate(0.000000,881.000000) scale(0.100000,-0.100000)"
fill="#000000" stroke="none">
<path d="M3855 8394 c-546 -60 -959 -176 -1400 -396 -386 -192 -723 -432
-1044 -743 -657 -637 -1078 -1475 -1188 -2365 -22 -177 -24 -711 -4 -915 59
-608 296 -1243 672 -1800 491 -728 1234 -1291 2074 -1570 408 -136 791 -197
1230 -198 313 0 562 27 865 93 640 141 1282 471 1786 920 136 121 341 338 473
499 500 613 824 1425 871 2181 36 585 -20 1040 -190 1550 -248 746 -726 1417
-1365 1917 -508 398 -1123 669 -1786 788 -243 43 -768 64 -994 39z m768 -348
c697 -78 1339 -345 1895 -788 155 -124 427 -394 546 -543 414 -519 680 -1143
770 -1810 81 -595 11 -1242 -195 -1793 -172 -463 -447 -898 -796 -1260 -92
-97 -101 -103 -128 -96 -44 10 -271 103 -420 172 -551 252 -875 434 -1032 577
l-63 57 0 103 c0 57 5 116 10 131 6 14 41 68 79 118 130 174 246 387 341 626
48 121 72 165 139 254 103 135 142 263 142 462 0 138 -12 196 -65 315 -13 30
-27 72 -31 94 -4 22 -11 245 -15 495 -9 498 -11 512 -76 708 -112 339 -339
603 -650 760 -272 137 -651 201 -1028 174 -621 -43 -1068 -331 -1294 -834 -97
-215 -108 -295 -123 -898 l-11 -435 -38 -95 c-50 -124 -64 -207 -57 -340 9
-164 53 -285 156 -425 56 -77 91 -144 152 -299 82 -204 220 -445 330 -577 21
-26 46 -63 54 -83 21 -49 21 -226 0 -266 -18 -35 -102 -107 -200 -172 -228
-150 -995 -521 -1268 -613 l-78 -26 -32 28 c-49 42 -268 287 -343 383 -322
411 -579 973 -688 1505 -51 250 -58 316 -63 660 -7 453 11 644 93 975 122 489
324 920 612 1310 396 536 933 949 1568 1205 308 125 616 202 994 250 146 18
614 13 813 -9z m-38 -1600 c469 -82 718 -293 840 -712 35 -120 44 -279 45
-784 l0 -405 26 -39 c43 -63 91 -168 103 -225 23 -111 -11 -203 -119 -316 -85
-90 -86 -92 -154 -275 -110 -294 -213 -471 -406 -695 l-51 -60 3 -225 c3 -186
6 -232 21 -263 35 -80 249 -270 440 -390 164 -105 758 -411 994 -513 62 -27
113 -51 113 -54 -1 -3 -40 -33 -88 -67 -819 -579 -1818 -797 -2837 -618 -494
87 -929 263 -1360 550 -154 103 -181 123 -174 129 2 2 110 52 239 111 627 286
985 495 1191 693 140 134 143 140 147 386 5 258 3 269 -58 342 -197 236 -297
412 -401 706 -51 143 -58 155 -143 247 -93 98 -108 128 -114 218 -7 108 3 150
62 254 l53 94 7 470 c8 563 14 632 64 781 50 145 110 249 201 346 91 97 171
155 292 212 129 61 244 91 464 120 77 10 514 -2 600 -18z"/>
</g>
</svg>
