<?xml version="1.0" standalone="no"?>
<!DOCTYPE svg PUBLIC "-//W3C//DTD SVG 20010904//EN"
 "http://www.w3.org/TR/2001/REC-SVG-20010904/DTD/svg10.dtd">
<svg version="1.0" xmlns="http://www.w3.org/2000/svg"
 width="640.000000pt" height="640.000000pt" viewBox="0 0 640.000000 640.000000"
 preserveAspectRatio="xMidYMid meet">

<g transform="translate(0.000000,640.000000) scale(0.100000,-0.100000)"
fill="#8224e3" stroke="none">
<path d="M3270 5325 c-8 -2 -50 -9 -94 -16 -53 -8 -87 -19 -104 -34 l-25 -22
12 -194 c25 -410 -30 -732 -178 -1034 -38 -77 -98 -180 -132 -230 -79 -111
-249 -284 -348 -353 l-74 -51 -44 38 c-90 80 -50 76 -681 79 l-563 2 -60 -26
c-64 -29 -115 -78 -151 -146 l-23 -43 -3 -979 c-3 -1135 -9 -1050 91 -1151 99
-98 86 -97 722 -93 l530 3 53 24 c34 15 72 44 106 83 l54 59 163 -90 164 -90
1021 -1 c760 -1 1032 1 1065 10 125 34 225 122 288 252 40 84 81 227 81 282 0
53 10 70 57 100 125 80 188 265 162 474 l-12 96 24 15 c13 9 44 34 68 56 149
136 171 311 65 518 l-34 68 50 102 c53 107 90 232 90 301 0 23 -7 69 -15 101
-59 227 -312 356 -794 406 -113 12 -703 6 -800 -7 l-44 -6 6 48 c3 27 14 103
23 169 25 171 25 545 1 670 -56 283 -169 458 -352 545 -44 21 -101 43 -127 49
-49 12 -212 23 -238 16z m183 -170 c205 -53 332 -220 385 -505 10 -57 15 -143
15 -260 0 -187 -10 -301 -45 -500 -26 -150 -26 -174 -2 -201 21 -24 29 -24
324 2 158 13 637 7 749 -11 273 -43 447 -126 519 -249 24 -41 27 -56 27 -141
0 -85 -4 -103 -33 -170 -17 -41 -45 -95 -62 -120 -16 -25 -30 -55 -30 -68 0
-13 18 -53 40 -90 115 -190 84 -348 -87 -444 -74 -42 -80 -59 -59 -156 20 -91
22 -209 6 -273 -17 -65 -70 -132 -137 -171 l-58 -34 -11 -95 c-23 -198 -63
-299 -150 -378 -94 -86 -19 -81 -1130 -81 l-983 0 -148 81 c-81 45 -160 88
-175 97 l-28 16 0 921 0 920 38 25 c126 83 286 227 388 350 57 69 158 226 202
315 93 188 156 391 186 605 21 141 30 392 18 515 -6 70 -5 102 2 107 19 13
180 8 239 -7z m-1315 -1809 c15 -8 41 -28 57 -46 l30 -31 2 -962 3 -962 -23
-39 c-12 -22 -38 -49 -57 -60 -34 -20 -51 -21 -550 -24 l-515 -3 -45 23 c-30
15 -53 37 -67 63 l-23 40 3 957 c2 953 2 957 23 985 11 15 36 38 54 51 l33 22
524 0 c432 0 529 -2 551 -14z"/>
</g>
</svg>
