<?xml version="1.0" standalone="no"?>
<!DOCTYPE svg PUBLIC "-//W3C//DTD SVG 20010904//EN"
 "http://www.w3.org/TR/2001/REC-SVG-20010904/DTD/svg10.dtd">
<svg version="1.0" xmlns="http://www.w3.org/2000/svg"
 width="860.000000pt" height="900.000000pt" viewBox="0 0 860.000000 900.000000"
 preserveAspectRatio="xMidYMid meet">

<g transform="translate(0.000000,900.000000) scale(0.100000,-0.100000)"
fill="#000000" stroke="none">
<path d="M1480 8583 c-110 -18 -228 -86 -303 -174 -63 -73 -117 -209 -117
-294 l0 -25 124 0 124 0 6 44 c14 88 89 170 181 196 29 8 888 10 3205 8 3107
-3 3166 -3 3204 -22 50 -25 97 -72 122 -122 19 -38 19 -87 22 -2329 2 -2515 6
-2349 -58 -2427 -34 -41 -120 -88 -162 -88 l-28 0 0 -125 0 -125 33 0 c53 0
162 35 222 71 66 40 140 115 178 180 15 25 36 81 47 124 20 77 20 110 20 2369
0 2525 4 2354 -63 2480 -66 126 -206 229 -346 256 -52 10 -6353 13 -6411 3z"/>
<path d="M693 7826 c-161 -39 -300 -167 -355 -323 l-23 -68 0 -2340 0 -2340
23 -68 c42 -121 142 -232 257 -287 86 -40 147 -50 315 -50 l149 0 3 -767 c3
-716 4 -771 21 -818 42 -113 116 -173 198 -162 91 12 132 44 659 524 283 257
701 638 929 846 l415 377 1909 0 c2118 0 1986 -4 2104 66 107 65 181 153 225
270 l23 59 0 2350 0 2350 -23 59 c-44 117 -118 205 -225 270 -120 71 153 66
-3374 65 -2505 -1 -3189 -3 -3230 -13z m6429 -246 c56 -16 119 -69 147 -125
l26 -49 3 -2295 c2 -2525 7 -2344 -58 -2423 -17 -20 -53 -48 -82 -62 l-52 -26
-1960 0 -1961 -1 -215 -197 c-565 -517 -1650 -1502 -1655 -1502 -3 0 -5 383
-5 850 l0 850 -278 0 -278 0 -52 26 c-29 14 -65 42 -82 62 -65 79 -60 -102
-58 2423 l3 2295 25 48 c29 56 80 101 136 121 33 12 538 14 3199 15 2147 0
3172 -3 3197 -10z"/>
<path d="M2135 5706 c-46 -21 -67 -51 -73 -105 -4 -45 -2 -52 31 -87 l35 -39
1802 0 1802 0 35 39 c33 35 35 42 31 87 -6 55 -27 85 -75 105 -47 20 -3543 20
-3588 0z"/>
<path d="M2119 5197 c-45 -30 -61 -63 -56 -116 4 -32 13 -52 36 -75 l31 -31
1800 0 1800 0 32 33 c29 29 33 39 33 87 0 48 -4 58 -33 87 l-32 33 -1789 3
-1788 2 -34 -23z"/>
<path d="M2134 4710 c-38 -15 -74 -68 -74 -108 0 -49 18 -81 59 -109 l34 -23
1777 0 1777 0 34 23 c69 47 80 124 25 185 l-34 37 -1789 2 c-983 1 -1797 -2
-1809 -7z"/>
</g>
</svg>