<?xml version="1.0" standalone="no"?>
<!DOCTYPE svg PUBLIC "-//W3C//DTD SVG 20010904//EN"
 "http://www.w3.org/TR/2001/REC-SVG-20010904/DTD/svg10.dtd">
<svg version="1.0" xmlns="http://www.w3.org/2000/svg"
 width="225.000000pt" height="225.000000pt" viewBox="0 0 225.000000 225.000000"
 preserveAspectRatio="xMidYMid meet">

<g transform="translate(0.000000,225.000000) scale(0.100000,-0.100000)"
fill="#000000" stroke="none">
<path d="M1395 2144 l-720 -104 -27 -30 -28 -30 0 -610 c0 -562 -3 -636 -24
-601 -3 5 -35 17 -70 26 -248 67 -494 -104 -513 -357 -21 -274 234 -491 497
-424 128 33 216 105 274 226 l31 65 5 575 5 574 575 82 c316 45 590 85 608 88
l32 5 0 -334 0 -334 -47 22 c-40 18 -66 22 -158 22 -104 0 -114 -2 -177 -33
-179 -88 -267 -290 -209 -480 45 -149 164 -253 324 -282 197 -37 410 108 457
312 6 26 10 354 10 852 l0 808 -34 34 c-23 23 -43 34 -62 33 -16 0 -353 -47
-749 -105z m645 -214 c0 -55 -2 -100 -3 -100 -2 0 -270 -38 -596 -85 -326 -47
-599 -85 -607 -85 -11 0 -14 21 -14 99 l0 100 43 6 c314 47 1129 163 1150 164
l27 1 0 -100z m-96 -1150 c77 -49 113 -147 85 -231 -51 -153 -249 -192 -352
-70 -80 96 -52 246 58 308 62 35 147 32 209 -7z m-1415 -204 c49 -34 91 -113
91 -170 -1 -106 -100 -206 -205 -206 -105 0 -205 100 -205 205 0 45 27 109 60
144 64 67 183 79 259 27z"/>
</g>
</svg>